<svg width="22" height="22" viewBox="0 0 22 22" fill="none" xmlns="http://www.w3.org/2000/svg">
<path d="M5.64958 16.9583C6.86954 15.4171 8.73579 14.4375 11 14.4375C13.2642 14.4375 15.1305 15.4171 16.3504 16.9583M13.9792 9.16667C13.9792 10.812 12.6453 12.1458 11 12.1458C9.35465 12.1458 8.02083 10.812 8.02083 9.16667C8.02083 7.52132 9.35465 6.1875 11 6.1875C12.6453 6.1875 13.9792 7.52132 13.9792 9.16667ZM19.4792 11C19.4792 6.31709 15.6829 2.52084 11 2.52084C6.31709 2.52084 2.52083 6.31709 2.52083 11C2.52083 13.5217 3.62162 15.7863 5.36889 17.3394C6.8664 18.6706 8.83877 19.4792 11 19.4792C13.1612 19.4792 15.1336 18.6706 16.6311 17.3394C18.3784 15.7863 19.4792 13.5217 19.4792 11Z" stroke="white" stroke-width="1.25" stroke-linejoin="round"/>
</svg>
