<svg width="118" height="24" viewBox="0 0 118 24" fill="none" xmlns="http://www.w3.org/2000/svg">
<path d="M6.07617 0C8.96507 0.000103507 11.3912 2.02124 12.002 4.72656C12.6183 2.02544 15.0412 1.80298e-05 17.9248 0H18.083V2.69727H17.9248C16.0529 2.69729 14.5459 4.22009 14.5459 6.07617C14.546 7.93216 16.0529 9.45506 17.9248 9.45508C19.7967 9.45508 21.288 7.93217 21.2881 6.07617V5.91699H23.9854V6.07617C23.9852 8.96451 21.9643 11.3896 19.2598 12.001C21.9602 12.6178 23.9853 15.0407 23.9854 17.9238V18.083H21.2881V17.9238C21.288 16.052 19.7651 14.545 17.9092 14.5449C16.0532 14.5449 14.5304 16.052 14.5303 17.9238C14.5303 19.7958 16.0531 21.2871 17.9092 21.2871H18.0674V23.9844H17.9092C15.023 23.9844 12.5981 21.967 11.9844 19.2656C11.3709 21.9705 8.94681 23.9999 6.06055 24H5.90137V21.3027H6.06055C7.93237 21.3026 9.43945 19.7798 9.43945 17.9238C9.43935 16.0679 7.9323 14.5451 6.06055 14.5449C4.18867 14.5449 2.69737 16.0678 2.69727 17.9238V18.083H0V17.9238C9.20637e-05 15.0238 2.03681 12.5893 4.75781 11.9902C2.0412 11.3856 0.000217103 8.95513 0 6.06055V5.90137H2.69727V6.06055C2.69752 7.93228 4.22024 9.43943 6.07617 9.43945C7.93202 9.43933 9.45483 7.93222 9.45508 6.06055C9.45508 4.18866 7.93217 2.69738 6.07617 2.69727H5.91699V0H6.07617ZM34.5781 4.10156C37.358 4.10156 39.2792 5.72921 40.251 7.43555L37.9004 9.10742C37.2337 7.98874 36.1262 6.8584 34.499 6.8584C33.3128 6.85853 32.2619 7.49162 32.2617 8.49707C32.262 9.72838 33.381 9.91 35.3018 10.5879C38.1832 11.6048 40.5781 12.3848 40.5781 15.4131C40.5778 18.4187 37.5382 19.8994 34.8037 19.8994C31.8435 19.8991 29.5608 18.3504 28.6455 16.2715L30.8945 14.6445C31.6177 16.1246 32.9963 17.1414 34.8379 17.1416C36.3067 17.1416 37.4704 16.4298 37.4707 15.4355C37.4706 14.4186 36.3296 13.8761 34.499 13.2998C31.55 12.3733 29.1429 11.4689 29.1426 8.50879C29.1426 5.61606 31.9792 4.1017 34.5781 4.10156ZM77.2959 4.10156C81.9628 4.10156 85.3417 7.4012 85.3418 12.0342C85.3416 16.6671 81.9628 19.8994 77.2959 19.8994C72.652 19.8991 69.2619 16.6668 69.2617 12.0342C69.2618 7.39012 72.6519 4.10188 77.2959 4.10156ZM60.6553 4.33887C65.2093 4.33887 68.5771 7.62722 68.5771 12.0117C68.5767 16.4184 65.209 19.6846 60.6553 19.6846H54.3047V4.33887H60.6553ZM52.9902 6.97168H45.125V10.5088H51.9502V13.1523H45.125V17.04H53.1592V19.6729H42.0742V4.32715H52.9902V6.97168ZM97.6689 14.8584V4.32715H100.72V19.6729H97.9062L89.4648 9.25391V19.6729H86.4141V4.32715H89.1826L97.6689 14.8584ZM117.429 19.6729H114.174L113.044 16.667H105.925L104.783 19.6729H101.529L107.722 4.32715H111.225L117.429 19.6729ZM77.3076 6.94922C74.4601 6.94939 72.4033 9.04029 72.4033 12.0234C72.4037 15.0288 74.4717 17.0633 77.3076 17.0635C80.1776 17.0634 82.2116 15.0289 82.2119 12.0234C82.2119 9.0402 80.1778 6.94926 77.3076 6.94922ZM57.3564 17.0508H60.5654C63.4805 17.0507 65.4576 14.8589 65.458 12.0117C65.458 9.1867 63.4808 6.96003 60.5654 6.95996H57.3564V17.0508ZM11.998 7.40918C11.4772 9.6918 9.66717 11.4902 7.37793 11.9932C9.66196 12.5013 11.4666 14.3006 11.9844 16.5811C12.5006 14.3069 14.2973 12.512 16.5723 11.998C14.3016 11.4786 12.5102 9.6826 11.998 7.40918ZM106.784 14.2373H112.163L109.484 7.51367L106.784 14.2373Z" fill="white"/>
</svg>
