<svg width="22" height="22" viewBox="0 0 22 22" fill="none" xmlns="http://www.w3.org/2000/svg">
<path d="M6.04667 3.74438C6.27404 3.86276 6.41667 4.09782 6.41667 4.35417V8.93751C6.41667 9.3172 6.10887 9.62501 5.72917 9.62501C5.34947 9.62501 5.04167 9.3172 5.04167 8.93751V5.67462L3.83176 6.52156C3.5207 6.7393 3.09202 6.66365 2.87428 6.3526C2.65654 6.04154 2.73219 5.61286 3.04325 5.39512L5.33492 3.79095C5.54493 3.64394 5.81929 3.62599 6.04667 3.74438Z" fill="#9E9D9A"/>
<path d="M10.7708 5.95834C10.3911 5.95834 10.0833 6.26614 10.0833 6.64584C10.0833 7.02553 10.3911 7.33334 10.7708 7.33334H18.5625C18.9422 7.33334 19.25 7.02553 19.25 6.64584C19.25 6.26614 18.9422 5.95834 18.5625 5.95834H10.7708Z" fill="#9E9D9A"/>
<path d="M10.7708 14.6667C10.3911 14.6667 10.0833 14.9745 10.0833 15.3542C10.0833 15.7339 10.3911 16.0417 10.7708 16.0417H18.5625C18.9422 16.0417 19.25 15.7339 19.25 15.3542C19.25 14.9745 18.9422 14.6667 18.5625 14.6667H10.7708Z" fill="#9E9D9A"/>
<path fill-rule="evenodd" clip-rule="evenodd" d="M3.19524 13.1871C2.91887 13.4475 2.90589 13.8826 3.16626 14.1589C3.42575 14.4344 3.85881 14.4482 4.13531 14.1905L4.14694 14.1803C4.15885 14.1699 4.1791 14.1529 4.2067 14.1313C4.26247 14.0876 4.34507 14.028 4.44677 13.9685C4.65977 13.844 4.90565 13.75 5.14146 13.75C5.66879 13.75 5.92308 14.1013 5.92308 14.3357C5.92308 14.496 5.8564 14.6544 5.64338 14.8551C5.41519 15.07 5.09029 15.266 4.68513 15.4956L4.57287 15.559C4.22417 15.7555 3.81601 15.9855 3.49527 16.2506C3.13222 16.5507 2.75 17.0016 2.75 17.6458C2.75 18.0255 3.0578 18.3333 3.4375 18.3333H6.875C7.2547 18.3333 7.5625 18.0255 7.5625 17.6458C7.5625 17.2661 7.2547 16.9583 6.875 16.9583H4.89646C5.01029 16.8914 5.13397 16.8214 5.26758 16.7459L5.36295 16.6919C5.75105 16.472 6.21943 16.2014 6.58619 15.8559C6.96812 15.4961 7.29808 15.0003 7.29808 14.3357C7.29808 13.1638 6.23687 12.375 5.14146 12.375C4.56589 12.375 4.07438 12.5935 3.75283 12.7815C3.58726 12.8783 3.45328 12.9749 3.35931 13.0484C3.31204 13.0854 3.27412 13.1172 3.24657 13.141C3.23278 13.153 3.22153 13.163 3.21294 13.1708L3.20206 13.1807L3.19814 13.1844L3.19656 13.1859L3.19524 13.1871ZM3.6666 13.6874C3.19524 13.1871 3.19524 13.1871 3.19524 13.1871L3.6666 13.6874Z" fill="#9E9D9A"/>
</svg>
