<svg width="24" height="24" viewBox="0 0 24 24" fill="none" xmlns="http://www.w3.org/2000/svg">
<path d="M3.75 4.75V4H3V4.75H3.75ZM20.25 4.75H21V4H20.25V4.75ZM3.75 20.25H3V21H3.75V20.25ZM11.25 21H12V19.5H11.25V21ZM19.5 11.25V12H21V11.25H19.5ZM17 2.75V2H15.5V2.75H17ZM8.5 2.75V2H7V2.75H8.5ZM3.75 4.75V5.5H7.75V4.75V4H3.75V4.75ZM7.75 4.75V5.5H16.25V4.75V4H7.75V4.75ZM16.25 4.75V5.5H20.25V4.75V4H16.25V4.75ZM11.25 20.25V19.5H3.75V20.25V21H11.25V20.25ZM3.75 20.25H4.5V9.25H3.75H3V20.25H3.75ZM3.75 9.25H4.5V4.75H3.75H3V9.25H3.75ZM3.75 9.25V10H20.25V9.25V8.5H3.75V9.25ZM7.75 4.75H8.5V2.75H7.75H7V4.75H7.75ZM16.25 4.75H17V2.75H16.25H15.5V4.75H16.25ZM20.25 4.75H19.5V9.25H20.25H21V4.75H20.25ZM20.25 9.25H19.5V11.25H20.25H21V9.25H20.25Z" fill="black"/>
<path d="M17.75 14.75V18M17.75 18V21.25M17.75 18H14.5M17.75 18H21" stroke="black" stroke-width="1.5" stroke-linecap="square"/>
</svg>
