<svg width="24" height="24" viewBox="0 0 24 24" fill="none" xmlns="http://www.w3.org/2000/svg">
<path d="M21.5 4.5H22V4H21.5V4.5ZM21.5 19.5V20H22V19.5H21.5ZM2.5 19.5H2V20H2.5V19.5ZM2.5 4.5V4H2V4.5H2.5ZM12 13L11.6834 13.387L12 13.646L12.3166 13.387L12 13ZM21.6111 5.78244L21.998 5.46582L21.3648 4.69186L20.9778 5.00848L21.6111 5.78244ZM3.02218 5.00848L2.6352 4.69186L2.00196 5.46582L2.38894 5.78244L3.02218 5.00848ZM21 4.5V19.5H22V4.5H21ZM21.5 19H2.5V20H21.5V19ZM3 19.5V4.5H2V19.5H3ZM2.5 5H21.5V4H2.5V5ZM20.9778 5.00848L11.6834 12.613L12.3166 13.387L21.6111 5.78244L20.9778 5.00848ZM12.3166 12.613L3.02218 5.00848L2.38894 5.78244L11.6834 13.387L12.3166 12.613Z" fill="black"/>
</svg>
