<svg width="24" height="24" viewBox="0 0 24 24" fill="none" xmlns="http://www.w3.org/2000/svg">
<path fill-rule="evenodd" clip-rule="evenodd" d="M2.85355 2.14645C2.65829 1.95118 2.34171 1.95118 2.14645 2.14645C1.95118 2.34171 1.95118 2.65829 2.14645 2.85355L5.66535 6.37246C4.28528 7.49425 3.03801 9.00711 2.00291 10.9009C1.62841 11.586 1.62976 12.4156 2.00383 13.0998C3.91429 16.5943 6.55027 18.7938 9.40028 19.6249C12.1289 20.4206 15.0011 19.9454 17.5238 18.2309L21.1464 21.8536C21.3417 22.0488 21.6583 22.0488 21.8536 21.8536C22.0488 21.6583 22.0488 21.3417 21.8536 21.1464L17.9508 17.2437C17.9452 17.2375 17.9394 17.2314 17.9334 17.2254L14.4752 13.7673C14.4812 13.7732 14.4869 13.7793 14.4925 13.7854L10.2145 9.50735C10.2206 9.51292 10.2267 9.51868 10.2326 9.52462L6.77438 6.06637C6.76837 6.06037 6.76225 6.05455 6.75602 6.04891L2.85355 2.14645ZM9.19683 9.90394C8.75972 10.488 8.50037 11.2138 8.50037 11.9995C8.50037 13.9325 10.0674 15.4995 12.0004 15.4995C12.7861 15.4995 13.5119 15.2401 14.0959 14.803L13.3786 14.0857C12.9834 14.3474 12.5099 14.4995 12.0004 14.4995C10.6197 14.4995 9.50037 13.3802 9.50037 11.9995C9.50037 11.49 9.65244 11.0165 9.91416 10.6213L9.19683 9.90394Z" fill="black"/>
<path d="M19.0857 16.9645C20.1679 15.9328 21.1534 14.6423 21.9968 13.0994C22.3711 12.4147 22.3711 11.5851 21.9968 10.9005C19.5118 6.35459 15.7946 3.99997 11.9998 4C10.4084 4.00001 8.83057 4.41416 7.35156 5.23039L19.0857 16.9645Z" fill="black"/>
</svg>
