<svg width="20" height="20" viewBox="0 0 20 20" fill="none" xmlns="http://www.w3.org/2000/svg">
<path d="M1.66675 9.9996L1.1076 9.72036L0.968146 9.9996L1.1076 10.2788L1.66675 9.9996ZM18.3334 9.99969L18.8926 10.2789L19.032 9.99969L18.8926 9.72045L18.3334 9.99969ZM1.66675 9.9996L2.2259 10.2788C4.15783 6.41028 7.12963 4.58299 10.0001 4.58301C12.8705 4.58303 15.8423 6.41037 17.7743 10.2789L18.3334 9.99969L18.8926 9.72045C16.8016 5.53349 13.4515 3.33303 10.0001 3.33301C6.54864 3.33298 3.19854 5.53339 1.1076 9.72036L1.66675 9.9996ZM1.66675 9.9996L1.1076 10.2788C3.19854 14.4658 6.54863 16.6663 10.0001 16.6663C13.4515 16.6663 16.8016 14.4659 18.8926 10.2789L18.3334 9.99969L17.7743 9.72045C15.8423 13.589 12.8705 15.4163 10.0001 15.4163C7.12964 15.4163 4.15783 13.5889 2.2259 9.72036L1.66675 9.9996ZM12.7084 9.99966H12.0834C12.0834 11.1503 11.1507 12.083 10.0001 12.083V12.708V13.333C11.841 13.333 13.3334 11.8406 13.3334 9.99966H12.7084ZM10.0001 12.708V12.083C8.84949 12.083 7.91675 11.1503 7.91675 9.99966H7.29175H6.66675C6.66675 11.8406 8.15913 13.333 10.0001 13.333V12.708ZM7.29175 9.99966H7.91675C7.91675 8.84907 8.84949 7.91633 10.0001 7.91633V7.29133V6.66633C8.15913 6.66633 6.66675 8.15871 6.66675 9.99966H7.29175ZM10.0001 7.29133V7.91633C11.1507 7.91633 12.0834 8.84907 12.0834 9.99966H12.7084H13.3334C13.3334 8.15871 11.841 6.66633 10.0001 6.66633V7.29133Z" fill="#0A0A0A"/>
</svg>
