<svg width="24" height="24" viewBox="0 0 24 24" fill="none" xmlns="http://www.w3.org/2000/svg">
<path fill-rule="evenodd" clip-rule="evenodd" d="M11.9999 4C15.7946 3.99997 19.5118 6.35459 21.9968 10.9005C22.3711 11.5851 22.3711 12.4147 21.9968 13.0994C19.5118 17.6452 15.7946 19.9999 11.9999 19.9999C8.2051 20 4.48788 17.6453 2.00288 13.0995C1.6286 12.4148 1.6286 11.5853 2.00288 10.9006C4.48787 6.3547 8.20509 4.00003 11.9999 4ZM8.74988 12C8.74988 10.2051 10.205 8.75 11.9999 8.75C13.7948 8.75 15.2499 10.2051 15.2499 12C15.2499 13.7949 13.7948 15.25 11.9999 15.25C10.205 15.25 8.74988 13.7949 8.74988 12Z" fill="black"/>
</svg>
