<svg width="18" height="18" viewBox="0 0 18 18" fill="none" xmlns="http://www.w3.org/2000/svg">
<path d="M0.5 0C0.223858 0 0 0.223858 0 0.5V5C0 5.27614 0.223858 5.5 0.5 5.5C0.776142 5.5 1 5.27614 1 5V1H5C5.27614 1 5.5 0.776142 5.5 0.5C5.5 0.223858 5.27614 0 5 0H0.5Z" fill="black"/>
<path d="M13 0C12.7239 0 12.5 0.223858 12.5 0.5C12.5 0.776142 12.7239 1 13 1H17V5C17 5.27614 17.2239 5.5 17.5 5.5C17.7761 5.5 18 5.27614 18 5V0.5C18 0.223858 17.7761 0 17.5 0H13Z" fill="black"/>
<path d="M1 13C1 12.7239 0.776142 12.5 0.5 12.5C0.223858 12.5 0 12.7239 0 13V17.5C0 17.7761 0.223858 18 0.5 18H5C5.27614 18 5.5 17.7761 5.5 17.5C5.5 17.2239 5.27614 17 5 17H1V13Z" fill="black"/>
<path d="M18 13C18 12.7239 17.7761 12.5 17.5 12.5C17.2239 12.5 17 12.7239 17 13V17H13C12.7239 17 12.5 17.2239 12.5 17.5C12.5 17.7761 12.7239 18 13 18H17.5C17.7761 18 18 17.7761 18 17.5V13Z" fill="black"/>
<path fill-rule="evenodd" clip-rule="evenodd" d="M5 7.5C5 7.22386 5.22386 7 5.5 7H6C6 5.34315 7.34315 4 9 4C10.6569 4 12 5.34315 12 7H12.5C12.7761 7 13 7.22386 13 7.5V12.5C13 12.7761 12.7761 13 12.5 13H5.5C5.22386 13 5 12.7761 5 12.5V7.5ZM11 7C11 5.89543 10.1046 5 9 5C7.89543 5 7 5.89543 7 7H11Z" fill="black"/>
</svg>
