<svg width="800" height="989" viewBox="0 0 800 989" fill="none" xmlns="http://www.w3.org/2000/svg">
<path d="M383.993 868.404C393.697 874.828 406.303 874.828 416.007 868.404L621.037 732.682C645.004 716.817 633.771 679.5 605.03 679.5H194.97C166.228 679.5 154.996 716.817 178.963 732.682L383.993 868.404Z" fill="#009B0D"/>
<circle cx="400" cy="400" r="400" fill="url(#paint0_radial_889_99)"/>
<circle cx="400" cy="964" r="25" fill="#009B0D"/>
<path d="M269 311.16L269.018 604.955C269.018 604.955 299.991 709.992 331 602.78L330.982 311L269 311.16ZM319.962 584.564C319.962 586.787 317.947 588.626 315.451 588.626C312.955 588.626 310.957 586.787 310.957 584.564V451.428C310.957 449.157 312.972 447.318 315.451 447.318C317.965 447.318 319.962 449.157 319.962 451.428V584.564Z" fill="white"/>
<path d="M343.981 218.502H339.28C340.758 214.531 341.773 210.352 341.773 205.917V170.276C341.773 148.613 322.218 131 298.085 131C273.971 131 254.398 148.613 254.398 170.276V205.917C254.398 210.352 255.413 214.531 256.891 218.502H251.246L216.178 246.33L216 300H384V245.898L343.981 218.502Z" fill="white"/>
<path d="M554.691 302.407C554.691 333.255 554.691 373.019 554.691 403.882H444.294C444.294 373.034 444.294 333.271 444.294 302.407H554.691ZM433.152 272.085H414L428.379 295.206V584.132C428.379 621.174 460.102 651 499.5 651C538.898 651 570.621 621.189 570.621 584.132V295.206L585 272.085H565.848H433.152ZM475.803 430.055C483.069 430.055 488.951 435.587 488.951 442.428C488.951 449.268 483.069 454.83 475.803 454.83C468.538 454.83 462.625 449.283 462.625 442.428C462.625 435.572 468.522 430.055 475.803 430.055ZM518.5 450.32C529.961 450.32 539.248 459.054 539.248 469.818C539.248 480.582 529.961 489.317 518.5 489.317C507.039 489.317 497.752 480.582 497.752 469.818C497.752 459.054 507.039 450.32 518.5 450.32ZM538.534 381.963C538.61 388.804 532.773 394.396 525.507 394.471C518.242 394.546 512.268 389.059 512.207 382.219C512.207 382.144 512.207 382.039 512.207 381.963C512.131 375.123 517.968 369.531 525.234 369.456C532.499 369.381 538.473 374.868 538.534 381.708C538.534 381.798 538.534 381.888 538.534 381.963ZM540.935 246.874C541.011 253.714 535.174 259.306 527.909 259.382C520.643 259.457 514.67 253.97 514.609 247.13C514.609 247.054 514.609 246.949 514.609 246.874C514.533 240.034 520.37 234.441 527.635 234.366C534.901 234.291 540.874 239.778 540.935 246.618C540.935 246.694 540.935 246.799 540.935 246.874ZM505.793 219.498C505.793 230.277 496.506 238.996 485.045 238.996C473.584 238.996 464.297 230.262 464.297 219.498C464.297 208.734 473.584 200 485.045 200C496.506 200 505.793 208.719 505.793 219.498Z" fill="white"/>
<defs>
<radialGradient id="paint0_radial_889_99" cx="0" cy="0" r="1" gradientUnits="userSpaceOnUse" gradientTransform="translate(400 400) rotate(90) scale(400)">
<stop stop-color="#00C410"/>
<stop offset="0.769231" stop-color="#00B60F"/>
<stop offset="1" stop-color="#009B0D"/>
</radialGradient>
</defs>
</svg>
