<svg width="17" height="16" viewBox="0 0 17 16" fill="none" xmlns="http://www.w3.org/2000/svg">
<path fill-rule="evenodd" clip-rule="evenodd" d="M16.4321 3.70482C17.7394 6.97262 16.0735 11.7539 8.8071 15.8367L8.50095 16.0087L8.1948 15.8367C0.928325 11.7539 -0.737621 6.97264 0.569708 3.70483C1.209 2.10685 2.54876 0.96602 4.12365 0.614004C5.55568 0.293923 7.13434 0.635937 8.50091 1.7913C9.86747 0.635937 11.4461 0.293922 12.8781 0.614001C14.453 0.966013 15.7928 2.10684 16.4321 3.70482ZM7.27487 4.74387L5.53832 7.375H3.49967V8.625H6.21103L7.22448 7.08946L9.72448 11.2561L11.461 8.625H13.4997V7.375H10.7883L9.77487 8.91054L7.27487 4.74387Z" fill="white"/>
</svg>
