<svg width="24" height="24" viewBox="0 0 24 24" fill="none" xmlns="http://www.w3.org/2000/svg">
<path fill-rule="evenodd" clip-rule="evenodd" d="M15.04 3.01639C15.722 2.33854 16.6162 1.99999 17.5081 2C18.4 2.00001 19.2942 2.33857 19.9762 3.01639C20.6583 3.69443 21.0001 4.58476 21 5.47405C20.9999 6.36319 20.6582 7.25333 19.9762 7.93125L9.39815 18.4453C8.61893 19.2198 7.35681 19.2198 6.57759 18.4453C5.79669 17.6691 5.79669 16.4094 6.57759 15.6332L12.2212 10.0237L12.9262 10.733L7.28255 16.3425C6.89504 16.7277 6.89504 17.3509 7.28255 17.736C7.67174 18.1229 8.304 18.1229 8.69319 17.736L19.2712 7.22201C19.7575 6.73868 20 6.10685 20 5.47398C20 4.84101 19.7576 4.20904 19.2712 3.72564C18.7848 3.24213 18.1476 3.00001 17.5081 3C16.8686 2.99999 16.2314 3.24211 15.745 3.72564L5.16695 14.2397C4.38849 15.0134 3.99996 16.0259 4 17.0394C4.00004 18.0528 4.38858 19.0652 5.16695 19.8389C5.94552 20.6127 6.96558 21 7.98791 21C9.01021 21 10.0302 20.6127 10.8088 19.8389L16.4524 14.2294L17.1574 14.9386L11.5138 20.5481C10.5397 21.5163 9.26268 22 7.98791 22C6.71312 22 5.43606 21.5163 4.46199 20.5481C3.48783 19.5798 3.00006 18.3092 3 17.0395C2.99994 15.7697 3.48772 14.4988 4.46199 13.5304L15.04 3.01639Z" fill="black"/>
</svg>
