<svg width="16" height="20" viewBox="0 0 16 20" fill="none" xmlns="http://www.w3.org/2000/svg">
<path fill-rule="evenodd" clip-rule="evenodd" d="M8 0C5.79086 0 4 1.79086 4 4V7H1.5C0.671573 7 0 7.67157 0 8.5V18.5C0 19.3284 0.671573 20 1.5 20H14.5C15.3284 20 16 19.3284 16 18.5V8.5C16 7.67157 15.3284 7 14.5 7H12V4C12 1.79086 10.2091 0 8 0ZM11 7V4C11 2.34315 9.65685 1 8 1C6.34315 1 5 2.34315 5 4V7H11ZM8 11.5C8.27614 11.5 8.5 11.7239 8.5 12V15C8.5 15.2761 8.27614 15.5 8 15.5C7.72386 15.5 7.5 15.2761 7.5 15V12C7.5 11.7239 7.72386 11.5 8 11.5Z" fill="#9E9D9A"/>
</svg>
