<svg width="20" height="20" viewBox="0 0 20 20" fill="none" xmlns="http://www.w3.org/2000/svg">
<path d="M1.67222 4.82716C1.66673 4.96102 1.66674 5.11056 1.66675 5.26973L1.66675 14.7302C1.66673 14.9447 1.66672 15.1418 1.68018 15.3066C1.69469 15.4842 1.72791 15.6785 1.8257 15.8704C1.96551 16.1448 2.18861 16.3679 2.46301 16.5077C2.65494 16.6055 2.84925 16.6387 3.02686 16.6532C3.19159 16.6667 3.38866 16.6667 3.60322 16.6667L16.3969 16.6667C16.6115 16.6667 16.8086 16.6667 16.9733 16.6532C17.1509 16.6387 17.3452 16.6055 17.5372 16.5077C17.8116 16.3679 18.0347 16.1448 18.1745 15.8704C18.2723 15.6785 18.3055 15.4842 18.32 15.3066C18.3334 15.1418 18.3334 14.9448 18.3334 14.7302L18.3334 5.26981C18.3334 5.11061 18.3334 4.96104 18.3279 4.82717L10.9236 10.8853C10.3864 11.3248 9.61381 11.3248 9.07661 10.8853L1.67222 4.82716Z" fill="white"/>
<path d="M17.7877 3.65415C17.7103 3.59211 17.6265 3.53778 17.5372 3.49228C17.3452 3.39449 17.1509 3.36128 16.9733 3.34676C16.8086 3.33331 16.6116 3.33332 16.397 3.33333L3.60324 3.33333C3.3887 3.33332 3.19157 3.3333 3.02686 3.34676C2.84925 3.36127 2.65494 3.39449 2.46302 3.49228C2.37371 3.53778 2.28985 3.5921 2.21252 3.65414L9.86816 9.91785C9.9449 9.98064 10.0553 9.98064 10.132 9.91786L17.7877 3.65415Z" fill="white"/>
</svg>
