<svg width="24" height="22" viewBox="0 0 24 22" fill="none" xmlns="http://www.w3.org/2000/svg">
<path fill-rule="evenodd" clip-rule="evenodd" d="M2.06151 1.93051C2.32857 1.07927 3.11741 0.5 4.00956 0.5H19.9906C20.8827 0.5 21.6716 1.07927 21.9386 1.93051L23.3672 6.48414C23.8482 8.01732 23.4442 9.5648 22.5001 10.6569V19.4583C22.5001 20.5859 21.586 21.5 20.4584 21.5H3.54173C2.41415 21.5 1.50006 20.5859 1.50006 19.4583V10.6569C0.555938 9.5648 0.151925 8.01732 0.632924 6.48414L2.06151 1.93051ZM9.86149 2.25L9.26287 7.33854C9.07011 8.97703 10.3503 10.4167 12.0001 10.4167C13.6447 10.4167 14.922 8.98609 14.7391 7.35403L14.1387 2.25H9.86149ZM16.4776 7.1537C16.4769 7.14716 16.4761 7.14061 16.4754 7.13406L15.9008 2.25H19.9906C20.118 2.25 20.2307 2.33275 20.2689 2.45436L21.6974 7.00798C22.2276 8.69785 20.9654 10.4167 19.1943 10.4167C17.8641 10.4167 16.7444 9.42097 16.5889 8.0998L16.4776 7.1537ZM8.09942 2.25L7.41121 8.09979C7.25578 9.42097 6.13607 10.4167 4.80578 10.4167C3.03471 10.4167 1.77253 8.69785 2.30268 7.00798L3.73127 2.45436C3.76942 2.33275 3.88211 2.25 4.00956 2.25H8.09942Z" fill="white"/>
</svg>
