<svg width="20" height="20" viewBox="0 0 20 20" fill="none" xmlns="http://www.w3.org/2000/svg">
<path d="M6.45836 5.83366C6.45836 3.87765 8.04401 2.29199 10 2.29199C11.956 2.29199 13.5417 3.87765 13.5417 5.83366V9.58366C13.5417 11.5397 11.956 13.1253 10 13.1253C8.04401 13.1253 6.45836 11.5397 6.45836 9.58366V5.83366Z" fill="#0A0A0A"/>
<path d="M10 15.8337C12.5629 15.8337 14.7655 14.291 15.73 12.0837M10 15.8337C7.43713 15.8337 5.23453 14.291 4.27008 12.0837M10 15.8337V17.7087M10 13.1253C8.04401 13.1253 6.45836 11.5397 6.45836 9.58366V5.83366C6.45836 3.87765 8.04401 2.29199 10 2.29199C11.956 2.29199 13.5417 3.87765 13.5417 5.83366V9.58366C13.5417 11.5397 11.956 13.1253 10 13.1253Z" stroke="#0A0A0A" stroke-width="1.5" stroke-linecap="square"/>
</svg>
