<svg width="20" height="20" viewBox="0 0 20 20" fill="none" xmlns="http://www.w3.org/2000/svg">
<path d="M6.4583 5.83366C6.4583 3.87765 8.04395 2.29199 9.99996 2.29199C11.956 2.29199 13.5416 3.87765 13.5416 5.83366V9.58366C13.5416 11.5397 11.956 13.1253 9.99996 13.1253C8.04395 13.1253 6.4583 11.5397 6.4583 9.58366V5.83366Z" fill="#0A0A0A"/>
<path d="M9.99996 15.8337C12.5629 15.8337 14.7655 14.291 15.7299 12.0837M9.99996 15.8337C7.43707 15.8337 5.23447 14.291 4.27002 12.0837M9.99996 15.8337V17.7087M9.99996 13.1253C8.04395 13.1253 6.4583 11.5397 6.4583 9.58366V5.83366C6.4583 3.87765 8.04395 2.29199 9.99996 2.29199C11.956 2.29199 13.5416 3.87765 13.5416 5.83366V9.58366C13.5416 11.5397 11.956 13.1253 9.99996 13.1253Z" stroke="#0A0A0A" stroke-width="1.5" stroke-linecap="square"/>
</svg>
