<svg width="20" height="20" viewBox="0 0 20 20" fill="none" xmlns="http://www.w3.org/2000/svg">
<path fill-rule="evenodd" clip-rule="evenodd" d="M9.99992 1.875C7.69873 1.875 5.83325 3.74048 5.83325 6.04167L5.83325 7.5L4.79158 7.5C3.98617 7.5 3.33325 8.15292 3.33325 8.95833L3.33325 16.875C3.33325 17.6804 3.98617 18.3333 4.79158 18.3333L15.2082 18.3333C16.0137 18.3333 16.6666 17.6804 16.6666 16.875L16.6666 8.95833C16.6666 8.15292 16.0137 7.5 15.2083 7.5L14.1666 7.5L14.1666 6.04167C14.1666 3.74048 12.3011 1.875 9.99992 1.875ZM12.9166 7.5L12.9166 6.04167C12.9166 4.43084 11.6107 3.125 9.99992 3.125C8.38909 3.125 7.08325 4.43084 7.08325 6.04167L7.08325 7.5L12.9166 7.5ZM9.99992 11.0417C10.3451 11.0417 10.6249 11.3215 10.6249 11.6667L10.6249 14.1667C10.6249 14.5118 10.3451 14.7917 9.99992 14.7917C9.65474 14.7917 9.37492 14.5118 9.37492 14.1667L9.37492 11.6667C9.37492 11.3215 9.65474 11.0417 9.99992 11.0417Z" fill="white"/>
</svg>
