<svg width="16" height="16" viewBox="0 0 16 16" fill="none" xmlns="http://www.w3.org/2000/svg">
<path fill-rule="evenodd" clip-rule="evenodd" d="M0.5 1.95833C0.5 1.15292 1.15292 0.5 1.95833 0.5H14.0417C14.8471 0.5 15.5 1.15292 15.5 1.95833V14.0417C15.5 14.8471 14.8471 15.5 14.0417 15.5H1.95833C1.15292 15.5 0.5 14.8471 0.5 14.0417V1.95833ZM1.95833 1.75C1.84327 1.75 1.75 1.84327 1.75 1.95833V10.0328L3.63547 8.14731C4.20498 7.5778 5.12835 7.5778 5.69786 8.14731L11.8005 14.25H14.0417C14.1567 14.25 14.25 14.1567 14.25 14.0417V1.95833C14.25 1.84327 14.1567 1.75 14.0417 1.75H1.95833Z" fill="white"/>
<path d="M9.18789 5.11439C9.2282 5.09423 9.2609 5.06154 9.28106 5.02122L9.89699 3.78934C9.97377 3.63579 10.1929 3.63579 10.2697 3.78934L10.8856 5.02122C10.9058 5.06154 10.9385 5.09423 10.9788 5.11439L12.2107 5.73033C12.3642 5.8071 12.3642 6.02623 12.2107 6.10301L10.9788 6.71894C10.9385 6.7391 10.9058 6.77179 10.8856 6.81211L10.2697 8.04399C10.1929 8.19754 9.97377 8.19754 9.89699 8.04399L9.28106 6.81211C9.2609 6.77179 9.2282 6.7391 9.18789 6.71894L7.95601 6.10301C7.80246 6.02623 7.80246 5.8071 7.95601 5.73033L9.18789 5.11439Z" fill="white"/>
</svg>
