<svg width="24" height="24" viewBox="0 0 24 24" fill="none" xmlns="http://www.w3.org/2000/svg">
<path d="M15.5 10C15.5 11.933 13.933 13.5 12 13.5C10.067 13.5 8.5 11.933 8.5 10C8.5 8.067 10.067 6.5 12 6.5C13.933 6.5 15.5 8.067 15.5 10Z" stroke="black" stroke-linejoin="round"/>
<path d="M18.3091 19.1027C16.96 17.1319 14.7401 15.8514 12 15.8514C9.25992 15.8514 7.04003 17.1319 5.69094 19.1027M18.3091 19.1027C20.2667 17.3625 21.5 14.8253 21.5 12C21.5 6.75329 17.2467 2.5 12 2.5C6.75329 2.5 2.5 6.75329 2.5 12C2.5 14.8253 3.73332 17.3625 5.69094 19.1027M18.3091 19.1027C16.6313 20.5941 14.4214 21.5 12 21.5C9.57857 21.5 7.36874 20.5941 5.69094 19.1027" stroke="black" stroke-linejoin="round"/>
</svg>
