<svg width="24" height="24" viewBox="0 0 24 24" fill="none" xmlns="http://www.w3.org/2000/svg">
<path d="M11.9872 21.5L11.5055 21.6342L11.8227 22.773L12.4189 21.7522L11.9872 21.5ZM22.5 3.5L22.9318 3.75216L23.3711 3H22.5V3.5ZM2 3.5V3H0.842445L1.63597 3.84276L2 3.5ZM9.06251 11.0007L9.54418 10.8665L9.51108 10.7477L9.42654 10.6579L9.06251 11.0007ZM21.8479 4.43659L22.2845 4.19289L21.7971 3.31971L21.3605 3.56341L21.8479 4.43659ZM12.4189 21.7522L22.9318 3.75216L22.0682 3.24784L11.5554 21.2478L12.4189 21.7522ZM22.5 3H2V4H22.5V3ZM1.63597 3.84276L8.69849 11.3434L9.42654 10.6579L2.36403 3.15724L1.63597 3.84276ZM8.58085 11.1349L11.5055 21.6342L12.4688 21.3658L9.54418 10.8665L8.58085 11.1349ZM9.50976 11.3237L21.8479 4.43659L21.3605 3.56341L9.02236 10.4505L9.50976 11.3237Z" fill="black"/>
</svg>
