<svg width="12" height="12" viewBox="0 0 12 12" fill="none" xmlns="http://www.w3.org/2000/svg">
<path d="M2.96057 0.167969C4.36709 0.167969 5.54678 1.15353 5.84143 2.47168C6.13874 1.15553 7.31733 0.167969 8.72131 0.167969H8.79846V1.47852H8.72131C7.81138 1.47852 7.07881 2.21888 7.07874 3.12109C7.07874 4.02336 7.81133 4.76367 8.72131 4.76367C9.63121 4.76357 10.3561 4.0233 10.3561 3.12109V3.04395H11.6666V3.12109C11.6666 4.52692 10.682 5.7056 9.36487 6.00098C10.6798 6.29919 11.6666 7.47676 11.6666 8.87988V8.95703H10.3551V8.87988C10.3551 7.9699 9.61479 7.2373 8.71252 7.2373C7.81046 7.23755 7.06995 7.97006 7.06995 8.87988C7.07005 9.78962 7.81053 10.5144 8.71252 10.5146H8.78967V11.8252H8.71252C7.30719 11.825 6.12829 10.841 5.83264 9.52441C5.53705 10.8427 4.35915 11.8328 2.95374 11.833H2.87659V10.5225H2.95374C3.86346 10.5222 4.59621 9.78193 4.59631 8.87988C4.59631 7.97775 3.86353 7.23753 2.95374 7.2373C2.04375 7.2373 1.31799 7.97761 1.31799 8.87988V8.95703H0.00744629V8.87988C0.00744629 7.46918 0.998836 6.28535 2.32288 5.99512C1.0011 5.70202 0.00744629 4.52127 0.00744629 3.11328V3.03613H1.31799V3.11328C1.31799 4.02311 2.05851 4.75561 2.96057 4.75586C3.86284 4.75586 4.60315 4.02326 4.60315 3.11328C4.60302 2.20341 3.86276 1.47852 2.96057 1.47852H2.8844V0.167969H2.96057ZM5.83948 3.76172C5.58824 4.87579 4.70719 5.75302 3.59045 5.99707C4.70429 6.24357 5.58257 7.12089 5.83264 8.2334C6.08205 7.12342 6.95783 6.24794 8.06799 5.99902C6.95986 5.74715 6.08651 4.87166 5.83948 3.76172Z" fill="#214CA0"/>
</svg>
