<svg width="24" height="24" viewBox="0 0 24 24" fill="none" xmlns="http://www.w3.org/2000/svg">
<path fill-rule="evenodd" clip-rule="evenodd" d="M12.4027 2.11725C12.157 1.96092 11.843 1.96092 11.5973 2.11725L2.34734 7.36725C2.13101 7.50492 2 7.74357 2 8V21.25C2 21.6642 2.33579 22 2.75 22H7.52469C7.77555 19.4733 9.90733 17.5 12.5 17.5C15.0927 17.5 17.2245 19.4733 17.4753 22H21.25C21.6642 22 22 21.6642 22 21.25V8C22 7.74357 21.869 7.50492 21.6527 7.36725L12.4027 2.11725ZM12 10.75C10.6193 10.75 9.5 11.8693 9.5 13.25C9.5 14.6307 10.6193 15.75 12 15.75C13.3807 15.75 14.5 14.6307 14.5 13.25C14.5 11.8693 13.3807 10.75 12 10.75Z" fill="white"/>
</svg>
