<svg width="20" height="20" viewBox="0 0 20 20" fill="none" xmlns="http://www.w3.org/2000/svg">
<path fill-rule="evenodd" clip-rule="evenodd" d="M7.40743 3.89805L8.895 1.66669H11.1056L12.5932 3.89805L15.015 3.33918L16.6612 4.98532L16.1023 7.40712L18.3337 8.8947V11.1053L16.1023 12.5929L16.6612 15.0147L15.015 16.6609L12.5932 16.102L11.1056 18.3334H8.895L7.40743 16.102L4.98562 16.6609L3.33948 15.0147L3.89836 12.5929L1.66699 11.1053V8.8947L3.89836 7.40712L3.33948 4.98532L4.98562 3.33918L7.40743 3.89805ZM7.39616 10C7.39616 8.56178 8.56208 7.39585 10.0003 7.39585C11.4386 7.39585 12.6045 8.56178 12.6045 10C12.6045 11.4383 11.4386 12.6042 10.0003 12.6042C8.56208 12.6042 7.39616 11.4383 7.39616 10Z" fill="#0A0A0A"/>
</svg>
