<svg width="24" height="24" viewBox="0 0 24 24" fill="none" xmlns="http://www.w3.org/2000/svg">
<path d="M19.5 13C14.2924 13.4508 11.4508 16.2924 11 21.5C10.5302 16.2114 7.70346 13.5894 2.5 13C7.7857 12.3904 10.3904 9.7857 11 4.5C11.5894 9.70346 14.2114 12.5302 19.5 13Z" stroke="black" stroke-linecap="round" stroke-linejoin="round"/>
<path d="M19.6932 1.17256C19.6821 1.07434 19.599 1.0001 19.5002 1C19.4014 0.999899 19.3182 1.07397 19.3068 1.17217C19.1914 2.17342 18.8902 2.89316 18.3917 3.39165C17.8932 3.89015 17.1734 4.19135 16.1722 4.30684C16.074 4.31816 15.9999 4.40135 16 4.5002C16.0001 4.59904 16.0743 4.68208 16.1726 4.69321C17.1576 4.80479 17.8917 5.10581 18.4013 5.60621C18.9098 6.10546 19.2178 6.82579 19.3063 7.82276C19.3152 7.92317 19.3994 8.00011 19.5002 8C19.601 7.99989 19.685 7.92275 19.6937 7.82232C19.7786 6.84134 20.0863 6.10681 20.5966 5.59656C21.1068 5.08632 21.8413 4.77864 22.8223 4.69372C22.9228 4.68503 22.9999 4.60102 23 4.50022C23.0001 4.39941 22.9232 4.31524 22.8228 4.30632C21.8258 4.21776 21.1055 3.90975 20.6062 3.40132C20.1058 2.8917 19.8048 2.15762 19.6932 1.17256Z" fill="black"/>
</svg>
