<svg width="20" height="20" viewBox="0 0 20 20" fill="none" xmlns="http://www.w3.org/2000/svg">
<path fill-rule="evenodd" clip-rule="evenodd" d="M1.66663 2.5H18.3333V15.8333H12.7381L9.99589 18.1052L7.28558 15.8333H1.66663V2.5ZM6.24996 8.36093C6.24996 7.42522 7.00476 6.66667 7.93586 6.66667C8.86353 6.66667 9.6162 7.41963 9.62174 8.35059C9.67034 9.30837 9.46835 10.005 9.07297 10.5668C8.68832 11.1133 8.14018 11.5003 7.58171 11.8745L7.26999 12.0833L6.85436 11.4568L7.16608 11.2479C7.73154 10.8691 8.16685 10.5502 8.46124 10.1319C8.50789 10.0656 8.55154 9.99601 8.59172 9.92222C8.39012 10.0079 8.1685 10.0552 7.93586 10.0552C7.00476 10.0552 6.24996 9.29665 6.24996 8.36093ZM10.3711 8.36093C10.3711 7.42522 11.1259 6.66667 12.057 6.66667C12.9846 6.66667 13.7373 7.41963 13.7428 8.35059C13.7914 9.30837 13.5894 10.005 13.1941 10.5668C12.8094 11.1133 12.2613 11.5003 11.7028 11.8745L11.3911 12.0833L10.9755 11.4568L11.2872 11.2479C11.8526 10.8691 12.288 10.5502 12.5823 10.1319C12.629 10.0656 12.6726 9.99601 12.7128 9.92222C12.5112 10.0079 12.2896 10.0552 12.057 10.0552C11.1259 10.0552 10.3711 9.29665 10.3711 8.36093Z" fill="#C7C6C2"/>
</svg>
