<svg width="18" height="18" viewBox="0 0 18 18" fill="none" xmlns="http://www.w3.org/2000/svg">
<path d="M8.37496 0.814922C8.02847 0.718505 7.6635 0.666992 7.287 0.666992C5.53782 0.666992 4.0488 1.77513 3.48137 3.32698C1.86931 3.69436 0.666626 5.13593 0.666626 6.85912C0.666626 7.65997 0.927 8.4007 1.36692 9.00033C0.927 9.59996 0.666626 10.3407 0.666626 11.1415C0.666626 12.5501 1.47033 13.7696 2.64223 14.3688C3.26304 16.097 4.91574 17.3337 6.85876 17.3337C7.39048 17.3337 7.90115 17.2408 8.37496 17.0703L8.37496 13.167C8.37496 12.0164 7.44222 11.0837 6.29163 11.0837H5.66663V9.83365H6.29163C7.07992 9.83365 7.8043 10.1073 8.37496 10.5648L8.37496 0.814922Z" fill="#C7C6C2"/>
<path d="M9.62496 17.0703C10.0988 17.2408 10.6094 17.3337 11.1412 17.3337C13.0842 17.3337 14.7369 16.097 15.3577 14.3688C16.5296 13.7696 17.3333 12.5501 17.3333 11.1415C17.3333 10.3407 17.0729 9.59996 16.633 9.00033C17.0729 8.4007 17.3333 7.65997 17.3333 6.85912C17.3333 5.13593 16.1306 3.69436 14.5185 3.32699C13.9511 1.77513 12.4621 0.666992 10.7129 0.666992C10.3364 0.666992 9.97146 0.718505 9.62496 0.814922V4.8367C9.6266 5.98589 10.5587 6.91699 11.7083 6.91699H12.3333V8.16699H11.7083C10.92 8.16699 10.1956 7.89335 9.62496 7.43589L9.62496 17.0703Z" fill="#C7C6C2"/>
</svg>
