<svg width="56" height="56" viewBox="0 0 56 56" fill="none" xmlns="http://www.w3.org/2000/svg">
<path d="M14.1768 -6.10352e-05C20.9116 -6.10352e-05 26.5724 4.70674 28.0039 11.0107C29.4483 4.71659 35.1018 2.46121e-05 41.8242 -6.10352e-05H42.1943V6.29291H41.8242C37.4565 6.29301 33.9397 9.84607 33.9395 14.1767C33.9395 18.5075 37.4564 22.0614 41.8242 22.0615C46.1921 22.0614 49.6719 18.5076 49.6719 14.1767V13.8066H55.9639V14.1767C55.9639 20.911 51.2582 26.5707 44.9551 28.0029C51.2485 29.4478 55.9648 35.1012 55.9648 41.8232V42.1933H49.6719V41.8232C49.6719 37.4553 46.118 33.9384 41.7871 33.9384C37.4563 33.9386 33.9023 37.4554 33.9023 41.8232C33.9026 46.1908 37.4565 49.6697 41.7871 49.6699H42.1572V55.9628H41.7871C35.0588 55.9627 29.4011 51.2654 27.9629 44.9706C26.5252 51.2739 20.8686 55.9999 14.1396 55.9999H13.7695V49.707H14.1396C18.5074 49.707 22.0242 46.1539 22.0244 41.8232C22.0244 37.4923 18.5076 33.9384 14.1396 33.9384C9.77204 33.9388 6.29297 37.4925 6.29297 41.8232V42.1933H0V41.8232C0 35.0591 4.74769 29.3784 11.0928 27.9775C4.75799 26.5634 0.000200333 20.8919 0 14.1406V13.7704H6.29297V14.1406C6.2932 18.5081 9.84629 22.024 14.1768 22.0244C18.5075 22.0244 22.0613 18.5083 22.0615 14.1406C22.0615 9.77265 18.5077 6.29291 14.1768 6.29291H13.8066V-6.10352e-05H14.1768ZM27.9961 17.3076C26.776 22.622 22.5559 26.8104 17.2246 27.9853C22.5445 29.1728 26.7511 33.3629 27.9629 38.6738C29.1708 33.3788 33.3571 29.1971 38.6543 27.9951C33.3686 26.7805 29.1957 22.5989 27.9961 17.3076Z" fill="black"/>
</svg>
